<?xml version="1.0" standalone="no"?>
<!DOCTYPE svg PUBLIC "-//W3C//DTD SVG 20010904//EN"
 "http://www.w3.org/TR/2001/REC-SVG-20010904/DTD/svg10.dtd">
<svg version="1.0" xmlns="http://www.w3.org/2000/svg"
 width="512.000000pt" height="512.000000pt" viewBox="0 0 512.000000 512.000000"
 preserveAspectRatio="xMidYMid meet">

<g transform="translate(0.000000,512.000000) scale(0.100000,-0.100000)"
fill="red" stroke="black" stroke-width="150">
<path d="M2455 4564 c-157 -25 -314 -116 -418 -244 -92 -112 -164 -285 -187
-445 -6 -44 -13 -94 -16 -111 -4 -27 -12 -35 -55 -54 -100 -43 -716 -349 -824
-410 -280 -157 -461 -306 -523 -429 -85 -170 -40 -273 162 -371 152 -74 430
-150 639 -175 31 -4 57 -9 57 -12 0 -3 -38 -62 -84 -132 -86 -129 -165 -236
-401 -541 -307 -396 -399 -578 -412 -816 -10 -171 20 -238 117 -264 26 -7 265
-10 717 -8 l678 3 46 27 c56 33 72 57 195 289 162 308 301 527 383 603 l31 30
41 -40 c79 -77 214 -292 376 -598 120 -227 136 -251 192 -284 l46 -27 670 -3
c462 -2 686 0 721 8 99 21 131 90 121 263 -13 240 -105 421 -412 817 -239 308
-333 436 -411 555 -42 64 -74 118 -72 119 1 2 53 11 115 20 424 64 753 212
779 352 33 176 -137 369 -520 592 -106 61 -847 432 -893 446 -15 5 -24 17 -27
39 -40 281 -93 424 -211 567 -81 98 -200 177 -325 214 -54 17 -237 29 -295 20z"/>
</g>
</svg>
